<mxfile host="app.diagrams.net" modified="2021-04-25T04:18:54.815Z" agent="5.0 (Windows NT 10.0; Win64; x64) AppleWebKit/537.36 (KHTML, like Gecko) Chrome/86.0.4240.198 Whale/2.9.116.15 Safari/537.36" etag="zpRSoj8RJ7BICjh_mrBw" version="14.6.6" type="github">
  <diagram id="zXiUeW_fQA7UbHBfIszY" name="Page-1">
    <mxGraphModel dx="700" dy="783" grid="1" gridSize="10" guides="1" tooltips="1" connect="1" arrows="1" fold="1" page="1" pageScale="1" pageWidth="827" pageHeight="1169" math="0" shadow="0">
      <root>
        <mxCell id="0" />
        <mxCell id="1" parent="0" />
        <mxCell id="rt908kD2XnZ9KGNQ1wWZ-1" value="" style="shape=internalStorage;whiteSpace=wrap;html=1;backgroundOutline=1;dx=130;dy=60;" parent="1" vertex="1">
          <mxGeometry x="600" y="290" width="130" height="80" as="geometry" />
        </mxCell>
        <mxCell id="rt908kD2XnZ9KGNQ1wWZ-2" value="" style="verticalLabelPosition=bottom;verticalAlign=top;html=1;shape=mxgraph.basic.smiley" parent="1" vertex="1">
          <mxGeometry x="600" y="270" width="30" height="30" as="geometry" />
        </mxCell>
        <mxCell id="rt908kD2XnZ9KGNQ1wWZ-3" value="" style="shape=internalStorage;whiteSpace=wrap;html=1;backgroundOutline=1;dx=120;dy=60;" parent="1" vertex="1">
          <mxGeometry x="610" y="80" width="120" height="80" as="geometry" />
        </mxCell>
        <mxCell id="rt908kD2XnZ9KGNQ1wWZ-4" value="" style="verticalLabelPosition=bottom;verticalAlign=top;html=1;shape=mxgraph.basic.smiley" parent="1" vertex="1">
          <mxGeometry x="610" y="60" width="30" height="30" as="geometry" />
        </mxCell>
        <mxCell id="rt908kD2XnZ9KGNQ1wWZ-5" value="" style="shape=internalStorage;whiteSpace=wrap;html=1;backgroundOutline=1;dx=120;dy=60;" parent="1" vertex="1">
          <mxGeometry x="360" y="200" width="120" height="80" as="geometry" />
        </mxCell>
        <mxCell id="rt908kD2XnZ9KGNQ1wWZ-6" value="" style="shape=internalStorage;whiteSpace=wrap;html=1;backgroundOutline=1;dx=80;dy=80;" parent="1" vertex="1">
          <mxGeometry x="110" y="330" width="80" height="110" as="geometry" />
        </mxCell>
        <mxCell id="rt908kD2XnZ9KGNQ1wWZ-7" value="" style="shape=internalStorage;whiteSpace=wrap;html=1;backgroundOutline=1;dx=80;dy=60;" parent="1" vertex="1">
          <mxGeometry x="110" y="170" width="80" height="100" as="geometry" />
        </mxCell>
        <mxCell id="rt908kD2XnZ9KGNQ1wWZ-8" value="Actor" style="shape=umlActor;verticalLabelPosition=bottom;verticalAlign=top;html=1;outlineConnect=0;" parent="1" vertex="1">
          <mxGeometry x="30" y="310" width="30" height="60" as="geometry" />
        </mxCell>
        <mxCell id="rt908kD2XnZ9KGNQ1wWZ-9" value="Guest" style="text;html=1;strokeColor=none;fillColor=none;align=center;verticalAlign=middle;whiteSpace=wrap;rounded=0;" parent="1" vertex="1">
          <mxGeometry x="25" y="280" width="40" height="20" as="geometry" />
        </mxCell>
        <mxCell id="rt908kD2XnZ9KGNQ1wWZ-10" value="Interface Page" style="text;html=1;strokeColor=none;fillColor=none;align=center;verticalAlign=middle;whiteSpace=wrap;rounded=0;" parent="1" vertex="1">
          <mxGeometry x="130" y="370" width="40" height="25" as="geometry" />
        </mxCell>
        <mxCell id="rt908kD2XnZ9KGNQ1wWZ-11" value="Controller" style="text;html=1;strokeColor=none;fillColor=none;align=center;verticalAlign=middle;whiteSpace=wrap;rounded=0;" parent="1" vertex="1">
          <mxGeometry x="400" y="230" width="40" height="20" as="geometry" />
        </mxCell>
        <mxCell id="rt908kD2XnZ9KGNQ1wWZ-12" value="Page Maker" style="text;html=1;strokeColor=none;fillColor=none;align=center;verticalAlign=middle;whiteSpace=wrap;rounded=0;" parent="1" vertex="1">
          <mxGeometry x="625" y="320" width="80" height="20" as="geometry" />
        </mxCell>
        <mxCell id="rt908kD2XnZ9KGNQ1wWZ-13" value="Database Connection" style="text;html=1;strokeColor=none;fillColor=none;align=center;verticalAlign=middle;whiteSpace=wrap;rounded=0;" parent="1" vertex="1">
          <mxGeometry x="650" y="110" width="40" height="20" as="geometry" />
        </mxCell>
        <mxCell id="rt908kD2XnZ9KGNQ1wWZ-20" value="receives" style="text;html=1;strokeColor=none;fillColor=none;align=center;verticalAlign=middle;whiteSpace=wrap;rounded=0;" parent="1" vertex="1">
          <mxGeometry x="270" y="200" width="40" height="20" as="geometry" />
        </mxCell>
        <mxCell id="rt908kD2XnZ9KGNQ1wWZ-21" value="posts" style="text;html=1;strokeColor=none;fillColor=none;align=center;verticalAlign=middle;whiteSpace=wrap;rounded=0;" parent="1" vertex="1">
          <mxGeometry x="230" y="335" width="40" height="20" as="geometry" />
        </mxCell>
        <mxCell id="rt908kD2XnZ9KGNQ1wWZ-22" value="prepares" style="text;html=1;strokeColor=none;fillColor=none;align=center;verticalAlign=middle;whiteSpace=wrap;rounded=0;" parent="1" vertex="1">
          <mxGeometry x="240" y="400" width="40" height="20" as="geometry" />
        </mxCell>
        <mxCell id="rt908kD2XnZ9KGNQ1wWZ-23" value="convey requests" style="text;html=1;strokeColor=none;fillColor=none;align=center;verticalAlign=middle;whiteSpace=wrap;rounded=0;" parent="1" vertex="1">
          <mxGeometry x="520" y="300" width="40" height="20" as="geometry" />
        </mxCell>
        <mxCell id="rt908kD2XnZ9KGNQ1wWZ-24" value="convey requests" style="text;html=1;strokeColor=none;fillColor=none;align=center;verticalAlign=middle;whiteSpace=wrap;rounded=0;" parent="1" vertex="1">
          <mxGeometry x="610" y="190" width="40" height="20" as="geometry" />
        </mxCell>
        <mxCell id="rt908kD2XnZ9KGNQ1wWZ-25" value="provide data" style="text;html=1;strokeColor=none;fillColor=none;align=center;verticalAlign=middle;whiteSpace=wrap;rounded=0;" parent="1" vertex="1">
          <mxGeometry x="705" y="240" width="40" height="20" as="geometry" />
        </mxCell>
        <mxCell id="rt908kD2XnZ9KGNQ1wWZ-26" value="" style="endArrow=none;html=1;exitX=0.5;exitY=0;exitDx=0;exitDy=0;entryX=0;entryY=0.5;entryDx=0;entryDy=0;" parent="1" source="rt908kD2XnZ9KGNQ1wWZ-9" edge="1">
          <mxGeometry width="50" height="50" relative="1" as="geometry">
            <mxPoint x="320" y="250" as="sourcePoint" />
            <mxPoint x="110" y="225" as="targetPoint" />
            <Array as="points">
              <mxPoint x="45" y="225" />
            </Array>
          </mxGeometry>
        </mxCell>
        <mxCell id="rt908kD2XnZ9KGNQ1wWZ-27" value="" style="endArrow=none;html=1;entryX=-0.028;entryY=0.168;entryDx=0;entryDy=0;entryPerimeter=0;" parent="1" source="rt908kD2XnZ9KGNQ1wWZ-8" edge="1">
          <mxGeometry width="50" height="50" relative="1" as="geometry">
            <mxPoint x="320" y="250" as="sourcePoint" />
            <mxPoint x="107.75999999999999" y="340.15999999999985" as="targetPoint" />
          </mxGeometry>
        </mxCell>
        <mxCell id="rt908kD2XnZ9KGNQ1wWZ-28" value="" style="verticalLabelPosition=bottom;verticalAlign=top;html=1;shape=mxgraph.basic.smiley" parent="1" vertex="1">
          <mxGeometry x="360" y="180" width="30" height="30" as="geometry" />
        </mxCell>
        <mxCell id="rt908kD2XnZ9KGNQ1wWZ-29" value="&amp;lt;&amp;lt;control&amp;gt;&amp;gt;" style="text;html=1;strokeColor=none;fillColor=none;align=center;verticalAlign=middle;whiteSpace=wrap;rounded=0;" parent="1" vertex="1">
          <mxGeometry x="400" y="210" width="40" height="20" as="geometry" />
        </mxCell>
        <mxCell id="rt908kD2XnZ9KGNQ1wWZ-30" value="&amp;lt;&amp;lt;boundary&amp;gt;&amp;gt;" style="text;html=1;strokeColor=none;fillColor=none;align=center;verticalAlign=middle;whiteSpace=wrap;rounded=0;" parent="1" vertex="1">
          <mxGeometry x="130" y="180" width="40" height="20" as="geometry" />
        </mxCell>
        <mxCell id="rt908kD2XnZ9KGNQ1wWZ-31" value="&amp;lt;&amp;lt;boundary&amp;gt;&amp;gt;" style="text;html=1;strokeColor=none;fillColor=none;align=center;verticalAlign=middle;whiteSpace=wrap;rounded=0;" parent="1" vertex="1">
          <mxGeometry x="130" y="345" width="40" height="20" as="geometry" />
        </mxCell>
        <mxCell id="rt908kD2XnZ9KGNQ1wWZ-32" value="Book ID" style="text;html=1;strokeColor=none;fillColor=none;align=center;verticalAlign=middle;whiteSpace=wrap;rounded=0;" parent="1" vertex="1">
          <mxGeometry x="110" y="240" width="80" height="20" as="geometry" />
        </mxCell>
        <mxCell id="rt908kD2XnZ9KGNQ1wWZ-33" value="Click Request" style="text;html=1;strokeColor=none;fillColor=none;align=center;verticalAlign=middle;whiteSpace=wrap;rounded=0;" parent="1" vertex="1">
          <mxGeometry x="110" y="200" width="80" height="20" as="geometry" />
        </mxCell>
        <mxCell id="rt908kD2XnZ9KGNQ1wWZ-34" value="&amp;lt;&amp;lt;boundary&amp;gt;&amp;gt;" style="text;html=1;strokeColor=none;fillColor=none;align=center;verticalAlign=middle;whiteSpace=wrap;rounded=0;" parent="1" vertex="1">
          <mxGeometry x="650" y="90" width="40" height="20" as="geometry" />
        </mxCell>
        <mxCell id="rt908kD2XnZ9KGNQ1wWZ-35" value="&amp;lt;&amp;lt;entity&amp;gt;&amp;gt;" style="text;html=1;strokeColor=none;fillColor=none;align=center;verticalAlign=middle;whiteSpace=wrap;rounded=0;" parent="1" vertex="1">
          <mxGeometry x="645" y="305" width="40" height="20" as="geometry" />
        </mxCell>
        <mxCell id="rt908kD2XnZ9KGNQ1wWZ-36" value="Actor" style="shape=umlActor;verticalLabelPosition=bottom;verticalAlign=top;html=1;outlineConnect=0;" parent="1" vertex="1">
          <mxGeometry x="810" y="100" width="30" height="60" as="geometry" />
        </mxCell>
        <mxCell id="rt908kD2XnZ9KGNQ1wWZ-37" value="Database" style="text;html=1;strokeColor=none;fillColor=none;align=center;verticalAlign=middle;whiteSpace=wrap;rounded=0;" parent="1" vertex="1">
          <mxGeometry x="805" y="80" width="40" height="20" as="geometry" />
        </mxCell>
        <mxCell id="rt908kD2XnZ9KGNQ1wWZ-38" value="" style="endArrow=none;html=1;exitX=1.015;exitY=0.62;exitDx=0;exitDy=0;exitPerimeter=0;" parent="1" source="rt908kD2XnZ9KGNQ1wWZ-3" target="rt908kD2XnZ9KGNQ1wWZ-36" edge="1">
          <mxGeometry width="50" height="50" relative="1" as="geometry">
            <mxPoint x="450" y="250" as="sourcePoint" />
            <mxPoint x="500" y="200" as="targetPoint" />
          </mxGeometry>
        </mxCell>
        <mxCell id="rt908kD2XnZ9KGNQ1wWZ-39" value="-----&lt;br&gt;-----&lt;br&gt;-----" style="whiteSpace=wrap;html=1;align=center;" parent="1" vertex="1">
          <mxGeometry x="100" y="140" width="30" height="40" as="geometry" />
        </mxCell>
        <mxCell id="rt908kD2XnZ9KGNQ1wWZ-40" value="-----&lt;br&gt;-----&lt;br&gt;-----" style="whiteSpace=wrap;html=1;align=center;" parent="1" vertex="1">
          <mxGeometry x="100" y="300" width="30" height="40" as="geometry" />
        </mxCell>
        <mxCell id="JWx9Ghfgm_thxGkhehEO-1" value="" style="endArrow=none;html=1;entryX=0;entryY=0.25;entryDx=0;entryDy=0;" edge="1" parent="1" target="rt908kD2XnZ9KGNQ1wWZ-5">
          <mxGeometry width="50" height="50" relative="1" as="geometry">
            <mxPoint x="190" y="220" as="sourcePoint" />
            <mxPoint x="240" y="170" as="targetPoint" />
          </mxGeometry>
        </mxCell>
        <mxCell id="JWx9Ghfgm_thxGkhehEO-2" value="" style="triangle;whiteSpace=wrap;html=1;fillColor=#000000;direction=east;" vertex="1" parent="1">
          <mxGeometry x="320" y="205" width="10" height="10" as="geometry" />
        </mxCell>
        <mxCell id="JWx9Ghfgm_thxGkhehEO-4" value="" style="endArrow=none;html=1;exitX=1;exitY=0.25;exitDx=0;exitDy=0;" edge="1" parent="1" source="rt908kD2XnZ9KGNQ1wWZ-6">
          <mxGeometry width="50" height="50" relative="1" as="geometry">
            <mxPoint x="310" y="295" as="sourcePoint" />
            <mxPoint x="360" y="245" as="targetPoint" />
            <Array as="points">
              <mxPoint x="310" y="358" />
              <mxPoint x="310" y="245" />
            </Array>
          </mxGeometry>
        </mxCell>
        <mxCell id="JWx9Ghfgm_thxGkhehEO-5" value="" style="triangle;whiteSpace=wrap;html=1;fillColor=#000000;direction=west;" vertex="1" parent="1">
          <mxGeometry x="220" y="340" width="10" height="10" as="geometry" />
        </mxCell>
        <mxCell id="JWx9Ghfgm_thxGkhehEO-6" value="" style="endArrow=none;html=1;exitX=0.988;exitY=0.864;exitDx=0;exitDy=0;exitPerimeter=0;" edge="1" parent="1" source="rt908kD2XnZ9KGNQ1wWZ-6">
          <mxGeometry width="50" height="50" relative="1" as="geometry">
            <mxPoint x="595" y="420" as="sourcePoint" />
            <mxPoint x="645" y="370" as="targetPoint" />
            <Array as="points">
              <mxPoint x="645" y="426" />
            </Array>
          </mxGeometry>
        </mxCell>
        <mxCell id="JWx9Ghfgm_thxGkhehEO-8" value="" style="triangle;whiteSpace=wrap;html=1;fillColor=#000000;direction=west;" vertex="1" parent="1">
          <mxGeometry x="220" y="405" width="10" height="10" as="geometry" />
        </mxCell>
        <mxCell id="JWx9Ghfgm_thxGkhehEO-10" value="" style="endArrow=none;html=1;" edge="1" parent="1">
          <mxGeometry width="50" height="50" relative="1" as="geometry">
            <mxPoint x="480" y="251" as="sourcePoint" />
            <mxPoint x="600" y="330" as="targetPoint" />
            <Array as="points">
              <mxPoint x="510" y="251" />
              <mxPoint x="510" y="330" />
            </Array>
          </mxGeometry>
        </mxCell>
        <mxCell id="JWx9Ghfgm_thxGkhehEO-11" value="" style="triangle;whiteSpace=wrap;html=1;fillColor=#000000;direction=east;" vertex="1" parent="1">
          <mxGeometry x="570" y="305" width="10" height="10" as="geometry" />
        </mxCell>
        <mxCell id="JWx9Ghfgm_thxGkhehEO-12" value="" style="endArrow=none;html=1;exitX=1;exitY=0.5;exitDx=0;exitDy=0;" edge="1" parent="1" source="rt908kD2XnZ9KGNQ1wWZ-5">
          <mxGeometry width="50" height="50" relative="1" as="geometry">
            <mxPoint x="610" y="210" as="sourcePoint" />
            <mxPoint x="660" y="160" as="targetPoint" />
            <Array as="points">
              <mxPoint x="660" y="240" />
            </Array>
          </mxGeometry>
        </mxCell>
        <mxCell id="JWx9Ghfgm_thxGkhehEO-13" value="" style="triangle;whiteSpace=wrap;html=1;fillColor=#000000;direction=north;" vertex="1" parent="1">
          <mxGeometry x="630" y="170" width="10" height="10" as="geometry" />
        </mxCell>
        <mxCell id="JWx9Ghfgm_thxGkhehEO-14" value="" style="endArrow=none;html=1;entryX=0.75;entryY=1;entryDx=0;entryDy=0;" edge="1" parent="1" target="rt908kD2XnZ9KGNQ1wWZ-3">
          <mxGeometry width="50" height="50" relative="1" as="geometry">
            <mxPoint x="700" y="290" as="sourcePoint" />
            <mxPoint x="705" y="160" as="targetPoint" />
          </mxGeometry>
        </mxCell>
        <mxCell id="JWx9Ghfgm_thxGkhehEO-16" value="" style="triangle;whiteSpace=wrap;html=1;fillColor=#000000;direction=south;" vertex="1" parent="1">
          <mxGeometry x="720" y="270" width="10" height="10" as="geometry" />
        </mxCell>
        <mxCell id="JWx9Ghfgm_thxGkhehEO-18" value="requestResults" style="text;html=1;strokeColor=none;fillColor=none;align=center;verticalAlign=middle;whiteSpace=wrap;rounded=0;" vertex="1" parent="1">
          <mxGeometry x="620" y="350" width="80" height="20" as="geometry" />
        </mxCell>
      </root>
    </mxGraphModel>
  </diagram>
</mxfile>
